<svg width="20" height="20" viewBox="0 0 20 20" fill="none" xmlns="http://www.w3.org/2000/svg">
<path d="M19.5046 10.1095C19.5038 5.02485 15.547 0.830731 10.5006 0.565468C5.45409 0.300204 1.08449 4.05665 0.557165 9.11359C0.0298356 14.1705 3.52937 18.7578 8.52065 19.5522V12.8726H6.10892V10.1095H8.52065V8.00367C8.52065 5.60804 9.93906 4.28477 12.1086 4.28477C12.821 4.29472 13.5318 4.35701 14.2353 4.47117V6.82378H13.0371C12.6236 6.76851 12.2074 6.9055 11.9063 7.19606C11.6052 7.48662 11.4517 7.89921 11.4893 8.31731V10.1095H14.1243L13.7027 12.8726H11.4893V19.5522C16.1059 18.8174 19.5054 14.8126 19.5046 10.1095Z" fill="#FF9A26"/>
</svg>
