<svg width="19" height="19" viewBox="0 0 19 19" fill="none" xmlns="http://www.w3.org/2000/svg">
<path fill-rule="evenodd" clip-rule="evenodd" d="M5.79401 0.606246C6.75401 0.562746 7.06039 0.552246 9.50464 0.552246C11.9489 0.552246 12.2553 0.562746 13.2153 0.606246C14.6785 0.672996 15.9629 1.0315 16.9941 2.06275C18.0258 3.09437 18.3839 4.37912 18.4506 5.84162C18.4941 6.80162 18.5046 7.108 18.5046 9.55225C18.5046 11.9965 18.4941 12.3029 18.4506 13.2629C18.3839 14.7261 18.0254 16.0105 16.9941 17.0417C15.9625 18.0734 14.6774 18.4315 13.2153 18.4982C12.2553 18.5417 11.9489 18.5522 9.50464 18.5522C7.06039 18.5522 6.75401 18.5417 5.79401 18.4982C4.33076 18.4315 3.04639 18.073 2.01514 17.0417C0.983514 16.0101 0.625389 14.7254 0.558639 13.2629C0.515139 12.3029 0.504639 11.9965 0.504639 9.55225C0.504639 7.108 0.515139 6.80162 0.558639 5.84162C0.625389 4.37837 0.983889 3.094 2.01514 2.06275C3.04676 1.03112 4.33151 0.672996 5.79401 0.606246ZM13.1414 2.22625C12.1923 2.18275 11.9076 2.17375 9.50464 2.17375C7.10164 2.17375 6.81701 2.18312 5.86789 2.22625C4.84376 2.27312 3.89314 2.47825 3.16189 3.2095C2.43064 3.94075 2.22551 4.89137 2.17864 5.9155C2.13514 6.86462 2.12614 7.14925 2.12614 9.55225C2.12614 11.9552 2.13551 12.2399 2.17864 13.189C2.22551 14.2131 2.43064 15.1637 3.16189 15.895C3.89314 16.6262 4.84376 16.8314 5.86789 16.8782C6.81664 16.9217 7.10126 16.9307 9.50464 16.9307C11.908 16.9307 12.1926 16.9214 13.1414 16.8782C14.1655 16.8314 15.1161 16.6262 15.8474 15.895C16.5786 15.1637 16.7838 14.2131 16.8306 13.189C16.8741 12.2399 16.8831 11.9552 16.8831 9.55225C16.8831 7.14925 16.8738 6.86462 16.8306 5.9155C16.7838 4.89137 16.5786 3.94075 15.8474 3.2095C15.1161 2.47825 14.1655 2.27312 13.1414 2.22625Z" fill="#04324D"/>
<path fill-rule="evenodd" clip-rule="evenodd" d="M5.41382 9.96143C5.41382 7.47627 7.4283 5.46143 9.91382 5.46143C12.3993 5.46143 14.4138 7.47591 14.4138 9.96143C14.4138 12.4469 12.3993 14.4614 9.91382 14.4614C7.4283 14.4614 5.41382 12.4466 5.41382 9.96143ZM6.99269 9.96143C6.99269 11.5746 8.30062 12.8826 9.91382 12.8826C11.527 12.8826 12.8349 11.5746 12.8349 9.96143C12.8349 8.34823 11.527 7.0403 9.91382 7.0403C8.30062 7.0403 6.99269 8.34823 6.99269 9.96143Z" fill="#04324D"/>
<circle cx="14.0046" cy="5.05247" r="1.22727" fill="#04324D"/>
</svg>
