<svg width="32" height="32" viewBox="0 0 32 32" fill="none" xmlns="http://www.w3.org/2000/svg">
<circle cx="16" cy="16" r="16" fill="#EC6518"/>
<path d="M16.9695 10.8182H19.0973V17.9176C19.0973 18.5739 18.9498 19.1439 18.6548 19.6278C18.3632 20.1117 17.9571 20.4846 17.4368 20.7464C16.9164 21.0083 16.3116 21.1392 15.6222 21.1392C15.009 21.1392 14.4522 21.0315 13.9517 20.8161C13.4545 20.5973 13.0601 20.2659 12.7685 19.8217C12.4768 19.3743 12.3326 18.8125 12.3359 18.1364H14.4787C14.4853 18.4048 14.54 18.6352 14.6428 18.8274C14.7488 19.0163 14.893 19.1622 15.0753 19.2649C15.2609 19.3643 15.4796 19.4141 15.7315 19.4141C15.9967 19.4141 16.2204 19.3577 16.4027 19.245C16.5883 19.129 16.7292 18.96 16.8253 18.7379C16.9214 18.5159 16.9695 18.2424 16.9695 17.9176V10.8182Z" fill="white"/>
</svg>
