<svg width="68" height="68" viewBox="0 0 68 68" fill="none" xmlns="http://www.w3.org/2000/svg">
<circle cx="34" cy="34" r="34" fill="#008CD2"/>
<circle cx="34" cy="34" r="34" fill="url(#paint0_linear_437_1002)"/>
<path d="M49.6818 21.1694H18.3179C15.9599 21.1694 14.041 23.0883 14.041 25.4463V42.5539C14.041 44.9119 15.9599 46.8308 18.3179 46.8308H49.6818C52.0398 46.8308 53.9587 44.9119 53.9587 42.5539V25.4463C53.9587 23.0883 52.0398 21.1694 49.6818 21.1694ZM51.1075 42.5539C51.1075 43.3409 50.4674 43.9795 49.6818 43.9795H18.3179C17.5324 43.9795 16.8923 43.3409 16.8923 42.5539V25.4463C16.8923 24.6594 17.5324 24.0207 18.3179 24.0207H49.6818C50.4674 24.0207 51.1075 24.6594 51.1075 25.4463V42.5539ZM41.128 39.7027C41.128 40.491 40.4894 41.1283 39.7024 41.1283H28.2973C27.5104 41.1283 26.8717 40.491 26.8717 39.7027C26.8717 38.9143 27.5104 38.277 28.2973 38.277H39.7024C40.4894 38.277 41.128 38.9143 41.128 39.7027ZM25.4461 28.2976C25.4461 29.086 24.8074 29.7232 24.0204 29.7232H22.5948C21.8079 29.7232 21.1692 29.086 21.1692 28.2976C21.1692 27.5092 21.8079 26.872 22.5948 26.872H24.0204C24.8074 26.872 25.4461 27.5092 25.4461 28.2976ZM28.2973 28.2976C28.2973 27.5092 28.936 26.872 29.723 26.872H31.1486C31.9356 26.872 32.5742 27.5092 32.5742 28.2976C32.5742 29.086 31.9356 29.7232 31.1486 29.7232H29.723C28.936 29.7232 28.2973 29.086 28.2973 28.2976ZM35.4255 28.2976C35.4255 27.5092 36.0642 26.872 36.8511 26.872H38.2768C39.0637 26.872 39.7024 27.5092 39.7024 28.2976C39.7024 29.086 39.0637 29.7232 38.2768 29.7232H36.8511C36.0642 29.7232 35.4255 29.086 35.4255 28.2976ZM46.8306 28.2976C46.8306 29.086 46.1919 29.7232 45.4049 29.7232H43.9793C43.1924 29.7232 42.5537 29.086 42.5537 28.2976C42.5537 27.5092 43.1924 26.872 43.9793 26.872H45.4049C46.1919 26.872 46.8306 27.5092 46.8306 28.2976ZM25.4461 34.0001C25.4461 34.7885 24.8074 35.4258 24.0204 35.4258H22.5948C21.8079 35.4258 21.1692 34.7885 21.1692 34.0001C21.1692 33.2117 21.8079 32.5745 22.5948 32.5745H24.0204C24.8074 32.5745 25.4461 33.2117 25.4461 34.0001ZM28.2973 34.0001C28.2973 33.2117 28.936 32.5745 29.723 32.5745H31.1486C31.9356 32.5745 32.5742 33.2117 32.5742 34.0001C32.5742 34.7885 31.9356 35.4258 31.1486 35.4258H29.723C28.936 35.4258 28.2973 34.7885 28.2973 34.0001ZM35.4255 34.0001C35.4255 33.2117 36.0642 32.5745 36.8511 32.5745H38.2768C39.0637 32.5745 39.7024 33.2117 39.7024 34.0001C39.7024 34.7885 39.0637 35.4258 38.2768 35.4258H36.8511C36.0642 35.4258 35.4255 34.7885 35.4255 34.0001ZM46.8306 34.0001C46.8306 34.7885 46.1919 35.4258 45.4049 35.4258H43.9793C43.1924 35.4258 42.5537 34.7885 42.5537 34.0001C42.5537 33.2117 43.1924 32.5745 43.9793 32.5745H45.4049C46.1919 32.5745 46.8306 33.2117 46.8306 34.0001Z" fill="white"/>
<defs>
<linearGradient id="paint0_linear_437_1002" x1="-1.079e-06" y1="34.1193" x2="68" y2="34.1193" gradientUnits="userSpaceOnUse">
<stop stop-color="#408BFA"/>
<stop offset="1" stop-color="#778EE5"/>
</linearGradient>
</defs>
</svg>
