<svg width="19" height="19" viewBox="0 0 19 19" fill="none" xmlns="http://www.w3.org/2000/svg">
<path fill-rule="evenodd" clip-rule="evenodd" d="M1.25464 0.552246H17.7546C18.1671 0.552246 18.5046 0.889746 18.5046 1.30225V17.8022C18.5046 18.2147 18.1671 18.5522 17.7546 18.5522H1.25464C0.842139 18.5522 0.504639 18.2147 0.504639 17.8022V1.30225C0.504639 0.889746 0.842139 0.552246 1.25464 0.552246ZM3.16714 15.8897H5.82964V7.30225H3.16714V15.8897ZM4.51714 6.13975C3.65464 6.13975 2.97964 5.46475 2.97964 4.60225C2.97964 3.73975 3.65464 3.06475 4.51714 3.06475C5.37964 3.06475 6.05464 3.73975 6.05464 4.60225C6.05464 5.42725 5.37964 6.13975 4.51714 6.13975ZM13.1796 15.8897H15.8046V11.1647C15.8046 8.83975 15.3171 7.07725 12.6171 7.07725C11.3421 7.07725 10.4421 7.78975 10.1046 8.46475H10.0671V7.30225H7.51714V15.8897H10.1796V11.6522C10.1796 10.5272 10.4046 9.43975 11.7921 9.43975C13.1796 9.43975 13.1796 10.7147 13.1796 11.7272V15.8897Z" fill="#04324D"/>
</svg>
