<svg width="62" height="63" viewBox="0 0 62 63" fill="none" xmlns="http://www.w3.org/2000/svg">
<path d="M62 31.8784C62 48.9992 48.1208 62.8784 31 62.8784C13.8792 62.8784 0 48.9992 0 31.8784C0 14.7576 13.8792 0.878418 31 0.878418C48.1208 0.878418 62 14.7576 62 31.8784Z" fill="white"/>
<g clip-path="url(#clip0_999_705)">
<path d="M31.6104 17.5127C28.6891 17.5127 26.3123 19.8895 26.3123 22.8109V33.2237C26.3123 36.1447 28.6891 38.5215 31.6104 38.5215C34.5318 38.5215 36.9086 36.1613 36.9086 33.2601V22.8109C36.9086 19.8895 34.5318 17.5127 31.6104 17.5127ZM34.7007 33.2598C34.7007 34.9435 33.3143 36.3136 31.6104 36.3136C29.9066 36.3136 28.5198 34.9276 28.5198 33.2233V22.8109C28.5198 21.1066 29.9062 19.7203 31.6104 19.7203C33.3147 19.7203 34.701 21.1066 34.7007 22.8109V33.2598Z" fill="#161C2D"/>
<path d="M32.8597 41.6855H30.6521V46.6526H32.8597V41.6855Z" fill="#161C2D"/>
<path d="M34.6627 45.5486H28.8494C28.2397 45.5486 27.7456 46.0427 27.7456 46.6524C27.7456 47.262 28.2397 47.7562 28.8494 47.7562H34.6627C35.2724 47.7562 35.7665 47.262 35.7665 46.6524C35.7665 46.0427 35.2724 45.5486 34.6627 45.5486Z" fill="#161C2D"/>
<path d="M40.1082 31.3835C39.4985 31.3835 39.0044 31.8777 39.0044 32.4873V33.3704C39.0044 37.3668 35.7526 40.6186 31.7561 40.6186C27.7593 40.6186 24.5079 37.3669 24.5079 33.3704V32.4873C24.5079 31.8777 24.0137 31.3835 23.4041 31.3835C22.7944 31.3835 22.3003 31.8777 22.3003 32.4873V33.3704C22.3003 38.5843 26.5422 42.8262 31.7561 42.8262C36.9701 42.8262 41.2119 38.5843 41.2119 33.3704V32.4873C41.2119 31.8777 40.7178 31.3835 40.1082 31.3835Z" fill="#161C2D"/>
</g>
<defs>
<clipPath id="clip0_999_705">
<rect width="30.2439" height="30.2439" fill="white" transform="translate(16.6343 17.5127)"/>
</clipPath>
</defs>
</svg>
