<svg width="62" height="63" viewBox="0 0 62 63" fill="none" xmlns="http://www.w3.org/2000/svg">
<path d="M61.3325 31.5139C61.3325 48.4334 47.6165 62.1494 30.697 62.1494C13.7775 62.1494 0.0615234 48.4334 0.0615234 31.5139C0.0615234 14.5944 13.7775 0.878418 30.697 0.878418C47.6165 0.878418 61.3325 14.5944 61.3325 31.5139Z" fill="#FF9A26"/>
<g clip-path="url(#clip0_997_413)">
<rect x="26.9609" y="18.8112" width="8.96648" height="17.933" rx="4.48324" fill="white"/>
<path d="M31.3003 17.3169C28.4133 17.3169 26.0645 19.6658 26.0645 22.5528V32.8431C26.0645 35.7298 28.4133 38.0787 31.3003 38.0787C34.1873 38.0787 36.5362 35.7462 36.5362 32.8791V22.5528C36.5362 19.6658 34.1873 17.3169 31.3003 17.3169ZM34.3542 32.8788C34.3542 34.5427 32.9842 35.8967 31.3003 35.8967C29.6165 35.8967 28.2461 34.527 28.2461 32.8428V22.5528C28.2461 20.8686 29.6161 19.4985 31.3003 19.4985C32.9845 19.4985 34.3546 20.8686 34.3542 22.5528V32.8788Z" fill="white"/>
<path d="M32.5351 41.2056H30.3535V46.1142H32.5351V41.2056Z" fill="white"/>
<path d="M34.3165 45.0234H28.5715C27.969 45.0234 27.4807 45.5117 27.4807 46.1142C27.4807 46.7167 27.969 47.205 28.5715 47.205H34.3165C34.919 47.205 35.4073 46.7167 35.4073 46.1142C35.4073 45.5117 34.919 45.0234 34.3165 45.0234Z" fill="white"/>
<path d="M39.6981 31.0249C39.0956 31.0249 38.6073 31.5132 38.6073 32.1157V32.9884C38.6073 36.9378 35.3938 40.1514 31.4442 40.1514C27.4944 40.1514 24.2812 36.9379 24.2812 32.9884V32.1157C24.2812 31.5132 23.7929 31.0249 23.1904 31.0249C22.5879 31.0249 22.0996 31.5132 22.0996 32.1157V32.9884C22.0996 38.141 26.2916 42.333 31.4442 42.333C36.5969 42.333 40.7889 38.141 40.7889 32.9884V32.1157C40.7889 31.5133 40.3006 31.0249 39.6981 31.0249Z" fill="white"/>
</g>
<defs>
<clipPath id="clip0_997_413">
<rect width="29.8883" height="29.8883" fill="white" transform="translate(16.5002 17.3169)"/>
</clipPath>
</defs>
</svg>
