<svg width="41" height="41" viewBox="0 0 41 41" fill="none" xmlns="http://www.w3.org/2000/svg">
<rect x="0.719727" y="0.731934" width="40" height="40" rx="20" fill="#FF9A26"/>
<path d="M18.6796 25.9107C18.6796 27.0645 17.7441 28 16.5903 28C15.4364 28 14.501 27.0645 14.501 25.9107V15.0893C14.501 13.9355 15.4364 13 16.5903 13C17.7441 13 18.6796 13.9355 18.6796 15.0893V25.9107Z" fill="white"/>
<path d="M26.5218 25.9107C26.5218 27.0645 25.5864 28 24.4326 28C23.2787 28 22.3433 27.0645 22.3433 25.9107V15.0893C22.3436 13.9355 23.279 13 24.4326 13C25.5864 13 26.5218 13.9355 26.5218 15.0893V25.9107Z" fill="white"/>
</svg>
