<svg width="75" height="75" viewBox="0 0 75 75" fill="none" xmlns="http://www.w3.org/2000/svg">
<path d="M75 37.5C75 58.2107 58.2107 75 37.5 75C16.7893 75 0 58.2107 0 37.5C0 16.7893 16.7893 0 37.5 0C58.2107 0 75 16.7893 75 37.5Z" fill="#FF9A26"/>
<g clip-path="url(#clip0_1115_327)">
<g clip-path="url(#clip1_1115_327)">
<rect x="33.229" y="25.2708" width="7.79915" height="15.5983" rx="3.89957" fill="white"/>
<path d="M37.0034 23.9711C34.4923 23.9711 32.4492 26.0141 32.4492 28.5253V37.476C32.4492 39.9868 34.4923 42.0299 37.0034 42.0299C39.5146 42.0299 41.5577 40.0011 41.5577 37.5073V28.5253C41.5577 26.0141 39.5146 23.9711 37.0034 23.9711ZM39.6598 37.507C39.6598 38.9543 38.4681 40.132 37.0034 40.132C35.5388 40.132 34.3468 38.9406 34.3468 37.4757V28.5253C34.3468 27.0604 35.5385 25.8687 37.0034 25.8687C38.4684 25.8687 39.6601 27.0604 39.6598 28.5253V37.507Z" fill="white"/>
<path d="M38.0773 44.7498H36.1797V49.0194H38.0773V44.7498Z" fill="white"/>
<path d="M39.627 48.0706H34.6299C34.1059 48.0706 33.6812 48.4953 33.6812 49.0194C33.6812 49.5434 34.1059 49.9681 34.6299 49.9681H39.627C40.151 49.9681 40.5758 49.5434 40.5758 49.0194C40.5758 48.4953 40.151 48.0706 39.627 48.0706Z" fill="white"/>
<path d="M44.3083 35.8944C43.7843 35.8944 43.3595 36.3191 43.3595 36.8432V37.6022C43.3595 41.0375 40.5644 43.8327 37.129 43.8327C33.6935 43.8327 30.8986 41.0376 30.8986 37.6022V36.8432C30.8986 36.3191 30.4738 35.8944 29.9498 35.8944C29.4257 35.8944 29.001 36.3191 29.001 36.8432V37.6022C29.001 42.0841 32.6472 45.7303 37.129 45.7303C41.6109 45.7303 45.2571 42.0841 45.2571 37.6022V36.8432C45.2571 36.3192 44.8324 35.8944 44.3083 35.8944Z" fill="white"/>
</g>
</g>
<defs>
<clipPath id="clip0_1115_327">
<rect width="27.9915" height="26.6178" fill="white" transform="translate(23 24)"/>
</clipPath>
<clipPath id="clip1_1115_327">
<rect width="25.9972" height="25.9972" fill="white" transform="translate(24.1304 23.9711)"/>
</clipPath>
</defs>
</svg>
