<svg width="75" height="76" viewBox="0 0 75 76" fill="none" xmlns="http://www.w3.org/2000/svg">
<path d="M75 38.085C75 58.7956 58.2107 75.585 37.5 75.585C16.7893 75.585 0 58.7956 0 38.085C0 17.3743 16.7893 0.584961 37.5 0.584961C58.2107 0.584961 75 17.3743 75 38.085Z" fill="#FF9A26"/>
<g clip-path="url(#clip0_1115_193)">
<path d="M48.4923 36.5173H39.9948C39.7188 36.5173 39.495 36.3044 39.495 36.0419V27.9615C39.495 26.6491 38.376 25.585 36.9958 25.585C35.6156 25.585 34.4965 26.6491 34.4965 27.9615V36.0419C34.4965 36.3044 34.2727 36.5173 33.9967 36.5173H25.4992C24.119 36.5173 23 37.5814 23 38.8938C23 40.2063 24.119 41.2704 25.4992 41.2704H33.9967C34.2727 41.2704 34.4965 41.4833 34.4965 41.7458V49.8262C34.4965 51.1386 35.6156 52.2027 36.9958 52.2027C38.376 52.2027 39.495 51.1386 39.495 49.8262V41.7458C39.495 41.4833 39.7188 41.2704 39.9948 41.2704H48.4923C49.8725 41.2704 50.9915 40.2063 50.9915 38.8938C50.9915 37.5814 49.8725 36.5173 48.4923 36.5173Z" fill="white"/>
</g>
<defs>
<clipPath id="clip0_1115_193">
<rect width="27.9915" height="26.6178" fill="white" transform="translate(23 25.585)"/>
</clipPath>
</defs>
</svg>
