<svg width="43" height="43" viewBox="0 0 43 43" fill="none" xmlns="http://www.w3.org/2000/svg">
<circle cx="21.8835" cy="21.6635" r="21.0299" fill="#E8EAEE" fill-opacity="0.5"/>
<path d="M27.1405 18.1586C28.5923 18.1586 29.7692 16.9817 29.7692 15.5299C29.7692 14.0781 28.5923 12.9011 27.1405 12.9011C25.6886 12.9011 24.5117 14.0781 24.5117 15.5299C24.5117 16.9817 25.6886 18.1586 27.1405 18.1586Z" stroke="#999999" stroke-width="1.7525" stroke-linecap="round" stroke-linejoin="round"/>
<path d="M16.6248 24.2923C18.0767 24.2923 19.2536 23.1153 19.2536 21.6635C19.2536 20.2117 18.0767 19.0348 16.6248 19.0348C15.173 19.0348 13.9961 20.2117 13.9961 21.6635C13.9961 23.1153 15.173 24.2923 16.6248 24.2923Z" stroke="#999999" stroke-width="1.7525" stroke-linecap="round" stroke-linejoin="round"/>
<path d="M27.1405 30.4259C28.5923 30.4259 29.7692 29.249 29.7692 27.7972C29.7692 26.3454 28.5923 25.1685 27.1405 25.1685C25.6886 25.1685 24.5117 26.3454 24.5117 27.7972C24.5117 29.249 25.6886 30.4259 27.1405 30.4259Z" stroke="#999999" stroke-width="1.7525" stroke-linecap="round" stroke-linejoin="round"/>
<path d="M18.8945 22.9866L24.8793 26.474" stroke="#999999" stroke-width="1.7525" stroke-linecap="round" stroke-linejoin="round"/>
<path d="M24.8705 16.8529L18.8945 20.3404" stroke="#999999" stroke-width="1.7525" stroke-linecap="round" stroke-linejoin="round"/>
</svg>
