<svg width="50" height="48" viewBox="0 0 50 48" fill="none" xmlns="http://www.w3.org/2000/svg">
<path opacity="0.4" d="M24.9807 43.9225C36.0572 43.9225 45.0365 34.984 45.0365 23.9577C45.0365 12.9315 36.0572 3.99292 24.9807 3.99292C13.9041 3.99292 4.9248 12.9315 4.9248 23.9577C4.9248 34.984 13.9041 43.9225 24.9807 43.9225Z" fill="white"/>
<path d="M18.3221 23.778L21.6313 24.5966L19.726 32.263C19.2848 34.0599 20.1672 34.6589 21.6915 33.6008L32.0805 26.4333C33.344 25.5549 33.1634 24.5367 31.6592 24.1573L28.35 23.3388L30.2554 15.6723C30.6966 13.8755 29.8141 13.2766 28.2899 14.3347L17.901 21.5021C16.6374 22.3806 16.8179 23.3987 18.3221 23.778Z" fill="white"/>
</svg>
