<svg width="304" height="12" viewBox="0 0 304 12" fill="none" xmlns="http://www.w3.org/2000/svg">
<path d="M112.283 9.06993C111.637 9.06993 111.048 8.92008 110.515 8.62037C109.982 8.314 109.559 7.89107 109.246 7.35159C108.94 6.80545 108.787 6.19271 108.787 5.51337C108.787 4.83402 108.94 4.22461 109.246 3.68513C109.559 3.13899 109.982 2.71607 110.515 2.41636C111.048 2.10999 111.637 1.9568 112.283 1.9568C112.936 1.9568 113.529 2.10999 114.061 2.41636C114.594 2.71607 115.014 3.13566 115.32 3.67514C115.627 4.21462 115.78 4.82736 115.78 5.51337C115.78 6.19937 115.627 6.81211 115.32 7.35159C115.014 7.89107 114.594 8.314 114.061 8.62037C113.529 8.92008 112.936 9.06993 112.283 9.06993ZM112.283 8.28069C112.769 8.28069 113.206 8.16747 113.592 7.94102C113.985 7.71457 114.291 7.39155 114.511 6.97196C114.737 6.55236 114.851 6.06617 114.851 5.51337C114.851 4.95391 114.737 4.46771 114.511 4.05477C114.291 3.63518 113.988 3.31216 113.602 3.08571C113.216 2.85926 112.776 2.74604 112.283 2.74604C111.79 2.74604 111.351 2.85926 110.964 3.08571C110.578 3.31216 110.272 3.63518 110.045 4.05477C109.826 4.46771 109.716 4.95391 109.716 5.51337C109.716 6.06617 109.826 6.55236 110.045 6.97196C110.272 7.39155 110.578 7.71457 110.964 7.94102C111.357 8.16747 111.797 8.28069 112.283 8.28069ZM117.889 4.41443C118.049 4.1014 118.275 3.8583 118.568 3.68513C118.868 3.51197 119.231 3.42538 119.657 3.42538V4.36448H119.418C118.399 4.36448 117.889 4.91728 117.889 6.02287V9H116.98V3.52529H117.889V4.41443ZM123.031 6.25265C123.031 5.68653 123.144 5.19368 123.37 4.77408C123.597 4.34783 123.91 4.01814 124.309 3.78504C124.716 3.55193 125.179 3.43537 125.698 3.43537C126.371 3.43537 126.923 3.59855 127.356 3.9249C127.796 4.25125 128.086 4.70415 128.226 5.28359H127.247C127.153 4.95058 126.97 4.6875 126.697 4.49435C126.431 4.3012 126.098 4.20463 125.698 4.20463C125.179 4.20463 124.759 4.38446 124.439 4.74411C124.12 5.0971 123.96 5.59995 123.96 6.25265C123.96 6.91202 124.12 7.42152 124.439 7.78118C124.759 8.14083 125.179 8.32066 125.698 8.32066C126.098 8.32066 126.431 8.22741 126.697 8.04093C126.963 7.85444 127.147 7.58803 127.247 7.2417H128.226C128.079 7.80116 127.786 8.25072 127.346 8.5904C126.907 8.92341 126.357 9.08991 125.698 9.08991C125.179 9.08991 124.716 8.97336 124.309 8.74025C123.91 8.50714 123.597 8.17746 123.37 7.75121C123.144 7.32495 123.031 6.82543 123.031 6.25265ZM131.826 9.08991C131.313 9.08991 130.847 8.97336 130.428 8.74025C130.015 8.50714 129.688 8.17746 129.449 7.75121C129.215 7.31829 129.099 6.81877 129.099 6.25265C129.099 5.69319 129.219 5.20034 129.459 4.77408C129.705 4.34116 130.038 4.01148 130.458 3.78504C130.877 3.55193 131.347 3.43537 131.866 3.43537C132.386 3.43537 132.855 3.55193 133.275 3.78504C133.694 4.01148 134.024 4.33783 134.264 4.76409C134.51 5.19034 134.634 5.68653 134.634 6.25265C134.634 6.81877 134.507 7.31829 134.254 7.75121C134.008 8.17746 133.671 8.50714 133.245 8.74025C132.819 8.97336 132.346 9.08991 131.826 9.08991ZM131.826 8.29068C132.153 8.29068 132.459 8.21409 132.745 8.06091C133.032 7.90772 133.262 7.67794 133.435 7.37157C133.615 7.0652 133.704 6.69223 133.704 6.25265C133.704 5.81308 133.618 5.4401 133.445 5.13373C133.272 4.82736 133.045 4.60091 132.765 4.45439C132.486 4.3012 132.183 4.22461 131.856 4.22461C131.523 4.22461 131.217 4.3012 130.937 4.45439C130.664 4.60091 130.444 4.82736 130.278 5.13373C130.111 5.4401 130.028 5.81308 130.028 6.25265C130.028 6.69889 130.108 7.07519 130.268 7.38156C130.434 7.68793 130.654 7.91771 130.927 8.0709C131.2 8.21742 131.5 8.29068 131.826 8.29068ZM138.496 3.42538C139.162 3.42538 139.702 3.62852 140.115 4.03479C140.528 4.43441 140.734 5.01385 140.734 5.77312V9H139.835V5.90299C139.835 5.35685 139.699 4.94059 139.425 4.6542C139.152 4.36115 138.779 4.21462 138.307 4.21462C137.827 4.21462 137.444 4.36448 137.158 4.66419C136.878 4.9639 136.738 5.40014 136.738 5.97292V9H135.829V3.52529H136.738V4.30453C136.918 4.0248 137.161 3.80835 137.467 3.65516C137.78 3.50198 138.123 3.42538 138.496 3.42538ZM143.328 4.27456V7.50145C143.328 7.76786 143.385 7.95767 143.498 8.0709C143.611 8.17746 143.808 8.23074 144.087 8.23074H144.757V9H143.938C143.431 9 143.052 8.88345 142.799 8.65034C142.546 8.41723 142.419 8.03427 142.419 7.50145V4.27456H141.71V3.52529H142.419V2.14662H143.328V3.52529H144.757V4.27456H143.328ZM146.328 2.63614C146.155 2.63614 146.008 2.5762 145.888 2.45632C145.768 2.33643 145.708 2.18991 145.708 2.01674C145.708 1.84358 145.768 1.69705 145.888 1.57717C146.008 1.45728 146.155 1.39734 146.328 1.39734C146.494 1.39734 146.634 1.45728 146.747 1.57717C146.867 1.69705 146.927 1.84358 146.927 2.01674C146.927 2.18991 146.867 2.33643 146.747 2.45632C146.634 2.5762 146.494 2.63614 146.328 2.63614ZM146.767 3.52529V9H145.858V3.52529H146.767ZM150.984 3.42538C151.65 3.42538 152.19 3.62852 152.603 4.03479C153.016 4.43441 153.222 5.01385 153.222 5.77312V9H152.323V5.90299C152.323 5.35685 152.186 4.94059 151.913 4.6542C151.64 4.36115 151.267 4.21462 150.794 4.21462C150.315 4.21462 149.932 4.36448 149.646 4.66419C149.366 4.9639 149.226 5.40014 149.226 5.97292V9H148.317V3.52529H149.226V4.30453C149.406 4.0248 149.649 3.80835 149.955 3.65516C150.268 3.50198 150.611 3.42538 150.984 3.42538ZM159.562 3.52529V9H158.653V8.19078C158.48 8.47051 158.237 8.6903 157.924 8.85014C157.618 9.00333 157.278 9.07992 156.905 9.07992C156.479 9.07992 156.096 8.99334 155.756 8.82017C155.416 8.64035 155.147 8.37394 154.947 8.02095C154.754 7.66795 154.657 7.23837 154.657 6.73219V3.52529H155.556V6.61231C155.556 7.15178 155.693 7.56805 155.966 7.8611C156.239 8.14749 156.612 8.29068 157.085 8.29068C157.571 8.29068 157.954 8.14083 158.234 7.84112C158.514 7.54141 158.653 7.10516 158.653 6.53238V3.52529H159.562ZM166.093 6.05285C166.093 6.22601 166.083 6.40917 166.063 6.60232H161.687C161.72 7.14179 161.903 7.56472 162.236 7.87109C162.576 8.1708 162.986 8.32066 163.465 8.32066C163.858 8.32066 164.185 8.23074 164.444 8.05092C164.711 7.86443 164.897 7.618 165.004 7.31163H165.983C165.836 7.83779 165.543 8.26737 165.104 8.60039C164.664 8.92674 164.118 9.08991 163.465 9.08991C162.946 9.08991 162.479 8.97336 162.067 8.74025C161.66 8.50714 161.341 8.17746 161.107 7.75121C160.874 7.31829 160.758 6.81877 160.758 6.25265C160.758 5.68653 160.871 5.19034 161.097 4.76409C161.324 4.33783 161.64 4.01148 162.047 3.78504C162.46 3.55193 162.932 3.43537 163.465 3.43537C163.985 3.43537 164.444 3.5486 164.844 3.77505C165.243 4.00149 165.55 4.31452 165.763 4.71414C165.983 5.10709 166.093 5.55333 166.093 6.05285ZM165.154 5.86303C165.154 5.5167 165.077 5.22032 164.924 4.97389C164.771 4.7208 164.561 4.53098 164.294 4.40444C164.035 4.27123 163.745 4.20463 163.425 4.20463C162.966 4.20463 162.573 4.35116 162.246 4.64421C161.927 4.93726 161.744 5.34353 161.697 5.86303H165.154ZM177.249 3.52529L175.541 9H174.602L173.283 4.6542L171.964 9H171.025L169.307 3.52529H170.236L171.495 8.12085L172.853 3.52529H173.782L175.111 8.13084L176.35 3.52529H177.249ZM178.621 2.63614C178.448 2.63614 178.301 2.5762 178.181 2.45632C178.061 2.33643 178.001 2.18991 178.001 2.01674C178.001 1.84358 178.061 1.69705 178.181 1.57717C178.301 1.45728 178.448 1.39734 178.621 1.39734C178.787 1.39734 178.927 1.45728 179.04 1.57717C179.16 1.69705 179.22 1.84358 179.22 2.01674C179.22 2.18991 179.16 2.33643 179.04 2.45632C178.927 2.5762 178.787 2.63614 178.621 2.63614ZM179.06 3.52529V9H178.151V3.52529H179.06ZM181.719 4.27456V7.50145C181.719 7.76786 181.775 7.95767 181.889 8.0709C182.002 8.17746 182.198 8.23074 182.478 8.23074H183.147V9H182.328C181.822 9 181.442 8.88345 181.189 8.65034C180.936 8.41723 180.81 8.03427 180.81 7.50145V4.27456H180.1V3.52529H180.81V2.14662H181.719V3.52529H183.147V4.27456H181.719ZM186.966 3.42538C187.379 3.42538 187.752 3.5153 188.085 3.69512C188.418 3.86829 188.678 4.13137 188.865 4.48436C189.058 4.83735 189.154 5.26694 189.154 5.77312V9H188.255V5.90299C188.255 5.35685 188.119 4.94059 187.845 4.6542C187.572 4.36115 187.199 4.21462 186.727 4.21462C186.247 4.21462 185.864 4.36448 185.578 4.66419C185.298 4.9639 185.158 5.40014 185.158 5.97292V9H184.249V1.60714H185.158V4.30453C185.338 4.0248 185.584 3.80835 185.897 3.65516C186.217 3.50198 186.573 3.42538 186.966 3.42538Z" fill="black"/>
<path d="M0 5.76367H99.9035" stroke="#DBDBDB" stroke-width="0.768489"/>
<path d="M203.65 5.76367H303.553" stroke="#DBDBDB" stroke-width="0.768489"/>
</svg>
