<svg width="45" height="44" viewBox="0 0 45 44" fill="none" xmlns="http://www.w3.org/2000/svg">
<g filter="url(#filter0_b_0_1)">
<rect x="-6.10352e-05" width="44.71" height="43.2364" rx="7.15846" fill="#090B0F"/>
</g>
<path d="M24.8324 20.9865C24.5696 20.9865 24.3069 20.8699 24.1536 20.6658L20.65 16.0212C20.5296 15.856 20.4858 15.6617 20.5296 15.477C20.5734 15.2924 20.6938 15.1175 20.88 15.0106L27.0769 11.3279C27.5586 11.0364 28.1389 10.9393 28.7082 11.0364C29.2775 11.1336 29.7702 11.4251 30.0987 11.8526L32.0913 14.4859C32.7592 15.3701 32.4964 16.575 31.4891 17.1678L25.3032 20.8504C25.1499 20.9476 24.9966 20.9865 24.8324 20.9865ZM22.4784 15.8171L25.0623 19.2472L30.5694 15.9726C30.8213 15.8268 30.887 15.5256 30.7118 15.3118L28.7191 12.6786C28.6425 12.5717 28.5221 12.5037 28.3797 12.4745C28.2374 12.4454 28.0951 12.4745 27.9746 12.5425L22.4784 15.8171Z" fill="white"/>
<path d="M19.2599 23.6295C18.9971 23.6295 18.7344 23.5129 18.5811 23.3088L15.7782 19.5969C15.5264 19.2666 15.625 18.8099 16.0082 18.5864L21.2416 15.477C21.4277 15.3701 21.6467 15.3312 21.8547 15.3701C22.0737 15.4089 22.2598 15.5158 22.3803 15.681L25.1831 19.3929C25.435 19.7233 25.3364 20.18 24.9532 20.4035L19.7198 23.5129C19.5774 23.5906 19.4132 23.6295 19.2599 23.6295ZM17.5957 19.3929L19.4789 21.8902L23.3438 19.5969L21.4606 17.09L17.5957 19.3929Z" fill="white"/>
<path d="M14.1575 26.1366C13.5443 26.1366 12.9312 25.8742 12.559 25.3787L11.3218 23.7462C11.0371 23.3673 10.9386 22.9203 11.0371 22.4733C11.1357 22.0263 11.4203 21.6474 11.8473 21.3948L16.172 18.8295C16.5443 18.606 17.0588 18.6935 17.3107 19.0336L19.7631 22.279C20.015 22.6094 19.9164 23.0661 19.5332 23.2896L15.2085 25.8548C14.891 26.0394 14.5188 26.1366 14.1575 26.1366ZM16.4019 20.4328L12.767 22.5899C12.6466 22.6677 12.6028 22.8134 12.6904 22.93L13.9275 24.5625C14.0151 24.6693 14.1794 24.7082 14.3107 24.6305L17.9457 22.4733L16.4019 20.4328Z" fill="white"/>
<path d="M16.6541 31.8985C16.5446 31.8985 16.4242 31.8791 16.3147 31.8305C15.8986 31.6653 15.7234 31.2281 15.9096 30.8685L20.8255 21.346C21.0116 20.9767 21.5043 20.8212 21.9094 20.9864C22.3255 21.1516 22.5006 21.5889 22.3145 21.9484L17.3986 31.471C17.2562 31.743 16.9606 31.8985 16.6541 31.8985Z" fill="white"/>
<path d="M26.5058 31.8217C26.1883 31.8217 25.8927 31.6662 25.7613 31.3941L20.9001 21.8716C20.714 21.5023 20.9001 21.0748 21.3052 20.9096C21.7103 20.7444 22.203 20.9096 22.3891 21.2691L27.2503 30.7917C27.4364 31.1609 27.2503 31.5885 26.8452 31.7536C26.7357 31.8022 26.6262 31.8217 26.5058 31.8217Z" fill="white"/>
<defs>
<filter id="filter0_b_0_1" x="-42.9508" y="-42.9507" width="130.611" height="129.138" filterUnits="userSpaceOnUse" color-interpolation-filters="sRGB">
<feFlood flood-opacity="0" result="BackgroundImageFix"/>
<feGaussianBlur in="BackgroundImageFix" stdDeviation="21.4754"/>
<feComposite in2="SourceAlpha" operator="in" result="effect1_backgroundBlur_0_1"/>
<feBlend mode="normal" in="SourceGraphic" in2="effect1_backgroundBlur_0_1" result="shape"/>
</filter>
</defs>
</svg>
