<svg width="18" height="16" viewBox="0 0 18 16" fill="none" xmlns="http://www.w3.org/2000/svg">
<path d="M17.5046 2.29194C16.8671 2.60122 16.1942 2.79451 15.4859 2.91049C16.1942 2.44658 16.7609 1.71204 17.0088 0.822865C16.3359 1.24812 15.5921 1.5574 14.7776 1.7507C14.1401 1.01616 13.2192 0.552246 12.2276 0.552246C10.3151 0.552246 8.75672 2.25328 8.75672 4.34091C8.75672 4.65018 8.79214 4.9208 8.86297 5.19142C5.99422 5.03678 3.40881 3.52905 1.67339 1.20946C1.39006 1.78936 1.21297 2.40792 1.21297 3.10379C1.21297 4.41823 1.81506 5.57802 2.77131 6.2739C2.20464 6.23524 1.67339 6.0806 1.17756 5.80998V5.84864C1.17756 7.70431 2.38172 9.2507 3.97547 9.59864C3.69214 9.67596 3.37339 9.71462 3.05464 9.71462C2.84214 9.71462 2.59422 9.67596 2.38172 9.6373C2.84214 11.145 4.11714 12.2662 5.64006 12.2662C4.43589 13.2713 2.94839 13.8899 1.31922 13.8899C1.03589 13.8899 0.752555 13.8899 0.504639 13.8512C2.06297 14.9337 3.86922 15.5522 5.85256 15.5522C12.263 15.5522 15.7692 9.75328 15.7692 4.7275C15.7692 4.57286 15.7692 4.37957 15.7692 4.22493C16.4421 3.72235 17.0442 3.06513 17.5046 2.29194Z" fill="#04324D"/>
</svg>
