<svg width="148" height="148" viewBox="0 0 148 148" fill="none" xmlns="http://www.w3.org/2000/svg">
<circle cx="74" cy="74" r="74" fill="#FF9A26"/>
<path d="M52.3334 35L95.6667 35C100.296 35 104.649 36.803 107.923 40.0771C111.197 43.3507 113 47.7035 113 52.3334L113 56.6669C113 59.0603 111.06 61.0005 108.667 61.0005C106.273 61.0005 104.333 59.0603 104.333 56.6669L104.333 52.3334C104.333 50.0185 103.432 47.8422 101.795 46.2054C100.158 44.5685 97.9817 43.6667 95.6667 43.6667L52.3334 43.6667C50.0186 43.6667 47.8424 44.5684 46.2054 46.2054C44.5685 47.8425 43.6667 50.0188 43.6667 52.3334L43.6667 56.6669C43.6667 59.0603 41.7267 61.0004 39.3335 61.0004C36.9403 61.0004 35 59.0603 35 56.6669L35 52.3334C35 47.7038 36.803 43.3513 40.0771 40.0771C43.3511 36.803 47.7039 35 52.3334 35ZM74.0001 52.3336C74.5995 52.3336 75.1702 52.4553 75.6894 52.6752C76.1738 52.8799 76.629 53.1772 77.0272 53.5661C77.0274 53.5662 77.0274 53.5664 77.0275 53.5664C77.0304 53.5691 77.0333 53.572 77.0362 53.5748C77.0369 53.5755 77.0378 53.5765 77.0386 53.5773C77.041 53.5794 77.0431 53.5817 77.0454 53.5839C77.0469 53.5854 77.0483 53.5867 77.0498 53.5883C77.0513 53.5898 77.0533 53.5918 77.0546 53.593C77.0577 53.596 77.061 53.5994 77.064 53.6024L94.3975 70.936C96.0897 72.6282 96.0897 75.372 94.3975 77.0643C92.7053 78.7565 89.9613 78.7567 88.2691 77.0643L78.3333 67.1285L78.3333 108.667C78.3334 111.06 76.3934 113 74.0001 113C71.6067 113 69.6666 111.06 69.6666 108.667L69.6666 67.1286L59.7309 77.0643C58.0388 78.7565 55.2946 78.7565 53.6026 77.0643C51.9104 75.3721 51.9104 72.6282 53.6026 70.936L70.936 53.6027C70.939 53.5997 70.9423 53.5963 70.9454 53.5933C70.947 53.5918 70.9489 53.5898 70.9502 53.5886C70.9517 53.587 70.9531 53.5857 70.9546 53.5842C70.9567 53.5818 70.9591 53.5797 70.9613 53.5776C70.962 53.5768 70.9631 53.5758 70.9638 53.5751C70.9666 53.5723 70.9694 53.5694 70.9723 53.5667C70.9725 53.5667 70.9725 53.5665 70.9726 53.5664C71.0203 53.5199 71.0686 53.4748 71.1179 53.4309C71.4808 53.1073 71.8849 52.8549 72.3123 52.6748C72.3138 52.6742 72.315 52.6736 72.3165 52.673C72.3182 52.6724 72.3195 52.6714 72.3212 52.671C72.8377 52.4535 73.4047 52.3336 74.0001 52.3336Z" fill="white"/>
</svg>
