<svg width="62" height="63" viewBox="0 0 62 63" fill="none" xmlns="http://www.w3.org/2000/svg">
<path d="M61.771 31.5139C61.771 48.4334 48.055 62.1494 31.1355 62.1494C14.216 62.1494 0.5 48.4334 0.5 31.5139C0.5 14.5944 14.216 0.878418 31.1355 0.878418C48.055 0.878418 61.771 14.5944 61.771 31.5139Z" fill="#FF9A26"/>
<path d="M18.9722 33.1712V29.5657C18.9722 29.0676 18.5687 28.6641 18.071 28.6641C17.573 28.6641 17.1694 29.0676 17.1694 29.5657V33.1712C17.1694 33.6693 17.573 34.0728 18.071 34.0728C18.5687 34.0728 18.9722 33.6693 18.9722 33.1712Z" fill="white"/>
<path d="M15.367 34.9739V27.7628C15.367 27.2648 14.9634 26.8612 14.4654 26.8612C13.9678 26.8612 13.5642 27.2648 13.5642 27.7628V34.9739C13.5642 35.472 13.9678 35.8755 14.4654 35.8755C14.9634 35.8755 15.367 35.472 15.367 34.9739Z" fill="white"/>
<path d="M22.5784 36.7769V25.9602C22.5784 25.4621 22.1749 25.0586 21.6772 25.0586C21.1792 25.0586 20.7756 25.4621 20.7756 25.9602V36.7769C20.7756 37.2749 21.1792 37.6785 21.6772 37.6785C22.1749 37.6785 22.5784 37.2749 22.5784 36.7769Z" fill="white"/>
<path d="M26.1836 38.5794V24.1571C26.1836 23.659 25.7801 23.2555 25.2825 23.2555C24.7844 23.2555 24.3809 23.659 24.3809 24.1571V38.5794C24.3809 39.0774 24.7844 39.481 25.2825 39.481C25.7801 39.481 26.1836 39.0774 26.1836 38.5794Z" fill="white"/>
<path d="M29.7898 43.9881V18.7491C29.7898 18.2511 29.3863 17.8475 28.8887 17.8475C28.3906 17.8475 27.9871 18.2511 27.9871 18.7491V43.9881C27.9871 44.4861 28.3906 44.8897 28.8887 44.8897C29.3863 44.8897 29.7898 44.4861 29.7898 43.9881Z" fill="white"/>
<path d="M44.212 33.1712V29.5657C44.212 29.0676 43.8084 28.6641 43.3104 28.6641C42.8127 28.6641 42.4092 29.0676 42.4092 29.5657V33.1712C42.4092 33.6693 42.8127 34.0728 43.3104 34.0728C43.8084 34.0728 44.212 33.6693 44.212 33.1712Z" fill="white"/>
<path d="M47.8177 34.9739V27.7628C47.8177 27.2648 47.4141 26.8612 46.9165 26.8612C46.4184 26.8612 46.0149 27.2648 46.0149 27.7628V34.9739C46.0149 35.472 46.4184 35.8755 46.9165 35.8755C47.4141 35.8755 47.8177 35.472 47.8177 34.9739Z" fill="white"/>
<path d="M40.6067 36.7769V25.9602C40.6067 25.4621 40.2032 25.0586 39.7051 25.0586C39.2075 25.0586 38.804 25.4621 38.804 25.9602V36.7769C38.804 37.2749 39.2075 37.6785 39.7051 37.6785C40.2032 37.6785 40.6067 37.2749 40.6067 36.7769Z" fill="white"/>
<path d="M37.0013 38.5794V24.1571C37.0013 23.659 36.5977 23.2555 36.0997 23.2555C35.602 23.2555 35.1985 23.659 35.1985 24.1571V38.5794C35.1985 39.0774 35.602 39.481 36.0997 39.481C36.5977 39.481 37.0013 39.0774 37.0013 38.5794Z" fill="white"/>
<path d="M33.3953 43.9881V18.7491C33.3953 18.2511 32.9918 17.8475 32.4937 17.8475C31.9961 17.8475 31.5925 18.2511 31.5925 18.7491V43.9881C31.5925 44.4861 31.9961 44.8897 32.4937 44.8897C32.9918 44.8897 33.3953 44.4861 33.3953 43.9881Z" fill="white"/>
</svg>
